HIERARCHY
ROOT Hips
{
    OFFSET 0.000000 0.000000 0.000000
    CHANNELS 6 Xposition Yposition Zposition Zrotation Xrotation Yrotation
    JOINT Spine
    {
        OFFSET -0.000000 0.081343 0.000000
        CHANNELS 3 Zrotation Xrotation Yrotation
        JOINT Spine1
        {
            OFFSET -0.000000 0.243280 0.000000
            CHANNELS 3 Zrotation Xrotation Yrotation
            JOINT Neck
            {
                OFFSET -0.000000 0.242281 0.022026
                CHANNELS 3 Zrotation Xrotation Yrotation
                JOINT Head
                {
                    OFFSET -0.000000 0.149025 -0.021289
                    CHANNELS 3 Zrotation Xrotation Yrotation
                    End Site
                    {
                        OFFSET -0.000000 0.198396 0.000000
                    }
                }
            }
            JOINT LeftShoulder
            {
                OFFSET 0.039707 0.224479 -0.002125
                CHANNELS 3 Zrotation Xrotation Yrotation
                JOINT LeftArm
                {
                    OFFSET 0.116942 0.000000 0.000000
                    CHANNELS 3 Zrotation Xrotation Yrotation
                    JOINT LeftForeArm
                    {
                        OFFSET 0.282002 0.000000 0.000000
                        CHANNELS 3 Zrotation Xrotation Yrotation
                        JOINT LeftHand
                        {
                            OFFSET 0.358743 0.000000 0.000000
                            CHANNELS 3 Zrotation Xrotation Yrotation
                            End Site
                            {
                                OFFSET 0.148797 0.000000 0.000000
                            }
                        }
                    }
                }
            }
            JOINT RightShoulder
            {
                OFFSET -0.039404 0.224479 -0.002125
                CHANNELS 3 Zrotation Xrotation Yrotation
                JOINT RightArm
                {
                    OFFSET -0.116942 0.000000 0.000000
                    CHANNELS 3 Zrotation Xrotation Yrotation
                    JOINT RightForeArm
                    {
                        OFFSET -0.282002 0.000000 0.000000
                        CHANNELS 3 Zrotation Xrotation Yrotation
                        JOINT RightHand
                        {
                            OFFSET -0.358743 0.000000 0.000000
                            CHANNELS 3 Zrotation Xrotation Yrotation
                            End Site
                            {
                                OFFSET -0.148797 0.000000 0.000000
                            }
                        }
                    }
                }
            }
        }
    }
    JOINT LeftUpLeg
    {
        OFFSET 0.099198 0.000000 0.000000
        CHANNELS 3 Zrotation Xrotation Yrotation
        JOINT LeftLeg
        {
            OFFSET -0.000000 -0.332973 0.000000
            CHANNELS 3 Zrotation Xrotation Yrotation
            JOINT LeftFoot
            {
                OFFSET -0.000000 -0.491254 0.000000
                CHANNELS 3 Zrotation Xrotation Yrotation
                JOINT LeftToeBase
                {
                    OFFSET -0.000000 -0.064479 0.148797
                    CHANNELS 3 Zrotation Xrotation Yrotation
                    End Site
                    {
                        OFFSET -0.000000 0.000000 0.039679
                    }
                }
            }
        }
    }
    JOINT RightUpLeg
    {
        OFFSET -0.099198 0.000000 0.000000
        CHANNELS 3 Zrotation Xrotation Yrotation
        JOINT RightLeg
        {
            OFFSET -0.000000 -0.332973 0.000000
            CHANNELS 3 Zrotation Xrotation Yrotation
            JOINT RightFoot
            {
                OFFSET -0.000000 -0.491254 0.000000
                CHANNELS 3 Zrotation Xrotation Yrotation
                JOINT RightToeBase
                {
                    OFFSET -0.000000 -0.064479 0.148797
                    CHANNELS 3 Zrotation Xrotation Yrotation
                    End Site
                    {
                        OFFSET -0.000000 0.000000 0.039679
                    }
                }
            }
        }
    }
}
MOTION
Frames:    8
Frame Time:    0.010000
-0.494828    0.859569    1.002607    -3.905121    -2.099720    -38.567398    -1.645671    2.236538    7.692315    -6.567134    9.490827    3.097886    16.068130    19.732388    40.834702    -24.841476    -11.194992    37.845360    0.935408    16.325974    -10.527201    -3.533736    25.651466    -65.355011    37.217003    17.618603    -59.198521    28.905504    33.997177    -15.061675    1.159014    28.302439    12.157316    47.957809    37.640110    12.538320    -15.712526    -8.939608    52.353088    -0.020093    -1.192618    4.739703    11.543885    -17.298807    2.565619    -7.273883    26.816940    4.586881    0.000000    0.000000    0.000000    0.000000    0.000000    0.000000    -10.909907    -12.249488    -7.728937    3.364691    44.444904    -4.926391    12.121488    -10.386051    18.977505    0.000000    0.000000    0.000000    
-0.494843    0.859947    1.003459    -4.016860    -1.395197    -39.628330    -1.191651    1.875199    8.237552    -7.153234    9.540581    3.337004    16.592535    19.646559    40.808601    -25.078558    -10.984597    37.817085    1.785737    16.391466    -11.036075    -7.355881    22.721230    -64.817810    34.966389    21.172188    -61.479832    30.453804    36.275127    -16.117668    1.863940    27.930691    11.362860    48.763264    41.469135    11.447167    -17.882629    -11.912890    51.466511    0.628890    -3.262153    5.333228    12.666391    -17.211744    4.049478    -7.552163    27.132654    4.075700    -18.271368    -12.271497    17.564802    0.000000    0.000000    0.000000    -10.508356    -13.439557    -9.244768    2.448197    45.371738    1.922108    10.648258    -12.255437    10.616316    0.000000    0.000000    0.000000    
-0.492041    0.861424    1.008355    -3.795245    -1.986611    -39.355751    -1.183177    2.242437    7.532862    -8.401529    10.063582    3.243140    17.675694    18.757212    40.987518    -25.271381    -9.875202    38.093582    2.308499    16.058554    -10.855528    -3.329757    25.083696    -67.195786    37.184452    18.451607    -59.668320    29.513998    34.743660    -15.366055    2.849770    27.313089    11.022202    47.828838    40.057049    11.952728    -15.207983    -9.830294    51.078697    0.162408    -2.550163    5.889387    11.204695    -16.882233    3.230476    -7.062819    26.635159    3.956135    -18.271368    -12.271497    17.564802    0.000000    0.000000    0.000000    -11.440583    -13.543704    -13.962976    -1.651760    46.075684    8.268819    7.488593    -12.904902    6.446814    0.000000    0.000000    0.000000    
-0.492611    0.863469    1.008829    -4.555746    -1.767927    -39.934303    -0.673659    2.801246    7.707006    -8.634473    10.016592    3.320002    18.023218    18.734241    40.879951    -25.590717    -9.704375    37.956161    2.805685    15.948916    -11.357388    -2.877914    25.362658    -67.801773    37.557461    17.858105    -59.879730    25.426138    35.145863    -14.569230    3.068408    27.872244    10.545460    47.355671    40.434921    12.751670    -15.382049    -9.632897    50.184937    1.316692    -2.356235    5.695642    12.329869    -16.104189    3.631679    -7.500970    26.632601    3.777781    -18.236256    -11.979925    18.583389    0.000000    0.000000    0.000000    -10.598223    -13.294754    -14.501105    -1.756555    45.502602    11.681056    4.582594    -13.647941    0.841531    0.000000    0.000000    0.000000    
-0.491950    0.864285    1.010118    -4.592866    -1.671875    -40.307098    -1.161154    3.146426    7.554726    -7.417422    9.332055    3.111491    16.440361    19.419233    40.775093    -25.396482    -10.132416    37.860031    1.578977    16.282858    -11.520869    -2.160147    25.663143    -67.849113    39.076740    18.171799    -60.006535    27.611719    35.423855    -17.670601    1.653705    28.605494    11.020156    48.026577    39.590630    12.962215    -14.269054    -9.252080    49.882164    1.231471    -2.548117    6.105713    12.467322    -16.113255    4.035206    -7.619020    26.510571    3.452428    -18.236256    -11.979925    18.583389    0.000000    0.000000    0.000000    -11.669273    -13.722379    -12.317307    2.777592    45.450031    -4.327980    6.421629    -11.680705    11.357715    0.000000    0.000000    0.000000    
-0.490842    0.865145    1.011872    -4.553859    -1.460328    -40.683849    -0.835338    3.083715    7.527427    -8.176744    9.462191    3.177442    17.142925    19.168800    40.685841    -25.689110    -9.529780    37.818630    2.188460    16.314501    -11.804190    -2.421383    25.390606    -68.208282    39.408993    18.404741    -60.425034    28.120667    35.764992    -18.358315    2.136045    28.570230    10.672342    47.937866    39.892471    13.056307    -14.289455    -8.631786    49.063633    2.450028    -1.976123    5.857015    12.545294    -15.925089    3.985028    -7.821737    26.434282    3.495876    -17.897539    -12.151427    19.532764    0.000000    0.000000    0.000000    -12.057801    -13.860897    -13.224224    3.043163    44.893524    -4.713946    5.369706    -12.129193    10.658681    0.000000    0.000000    0.000000    
-0.489682    0.866150    1.013860    -4.523518    -1.159258    -41.143833    -0.681698    2.926341    7.332484    -8.280558    9.540119    3.128806    17.170851    19.063602    40.673798    -25.903353    -9.204401    37.819469    1.759916    16.141846    -11.627108    -2.206846    25.465563    -68.539589    39.495449    18.512148    -60.838387    28.332975    36.045975    -18.348774    2.290085    27.624321    10.901048    49.550030    42.410324    10.675860    -15.847707    -10.294194    48.769909    3.422952    -2.930122    5.989316    12.673702    -15.777021    3.841365    -8.100850    26.076136    3.663150    -17.646437    -12.347379    20.046158    0.000000    0.000000    0.000000    -12.416031    -13.885775    -14.062457    3.203248    44.160263    -4.988564    4.766052    -12.249025    11.190912    0.000000    0.000000    0.000000    
-0.489241    0.867001    1.014772    -4.512082    -1.048765    -41.565598    -0.635650    3.017678    7.259639    -8.691612    9.507827    3.136554    17.632694    19.037285    40.543766    -26.197950    -8.965550    37.684380    2.158921    16.407516    -11.680108    -7.064884    22.431545    -67.285141    36.901569    22.056271    -63.688999    30.352453    38.188671    -19.481588    2.473934    28.355747    10.483568    48.533123    42.610504    12.217377    -15.820148    -9.871548    47.607632    4.109944    -2.673403    5.965221    12.852982    -15.689836    4.221949    -8.291094    25.851479    3.347418    -17.646437    -12.347379    20.046158    0.000000    0.000000    0.000000    -11.997133    -14.288245    -17.098867    -0.690916    43.826237    -3.303569    5.364629    -11.695217    14.069262    0.000000    0.000000    0.000000    
